<svg width="24" height="24" viewBox="0 0 24 24" fill="none" xmlns="http://www.w3.org/2000/svg">
<path opacity="0.3" d="M12 4C7.58 4 4 7.58 4 12C4 13.95 4.7 15.73 5.86 17.12C7.55 15.8 9.68 15 12 15C14.32 15 16.45 15.8 18.14 17.12C19.3 15.73 20 13.95 20 12C20 7.58 16.42 4 12 4ZM12 13C10.07 13 8.5 11.43 8.5 9.5C8.5 7.57 10.07 6 12 6C13.93 6 15.5 7.57 15.5 9.5C15.5 11.43 13.93 13 12 13Z" fill="white"/>
<path d="M12 2C6.48 2 2 6.48 2 12C2 17.52 6.48 22 12 22C17.52 22 22 17.52 22 12C22 6.48 17.52 2 12 2ZM12 20C10.26 20 8.66 19.44 7.35 18.5C8.66 17.56 10.26 17 12 17C13.74 17 15.34 17.56 16.65 18.5C15.34 19.44 13.74 20 12 20ZM18.14 17.12C16.45 15.8 14.32 15 12 15C9.68 15 7.55 15.8 5.86 17.12C4.7 15.73 4 13.95 4 12C4 7.58 7.58 4 12 4C16.42 4 20 7.58 20 12C20 13.95 19.3 15.73 18.14 17.12Z" fill="white"/>
<path d="M12 5.92969C10.07 5.92969 8.5 7.49969 8.5 9.42969C8.5 11.3597 10.07 12.9297 12 12.9297C13.93 12.9297 15.5 11.3597 15.5 9.42969C15.5 7.49969 13.93 5.92969 12 5.92969ZM12 10.9297C11.17 10.9297 10.5 10.2597 10.5 9.42969C10.5 8.59969 11.17 7.92969 12 7.92969C12.83 7.92969 13.5 8.59969 13.5 9.42969C13.5 10.2597 12.83 10.9297 12 10.9297Z" fill="white"/>
</svg>
